<svg width="110" height="24" viewBox="0 0 110 24" fill="none" xmlns="http://www.w3.org/2000/svg">
<g clip-path="url(#clip0_538_327)">
<path d="M14.1307 0.834229H1.30364C0.57283 0.834229 0 1.40706 0 2.13787V21.7913C0 22.5234 0.57283 23.095 1.30364 23.095C2.03444 23.095 2.60984 22.5106 2.60984 21.7913V12.7789H10.826C11.5581 12.7789 12.1296 12.2061 12.1296 11.474C12.1296 10.7419 11.5452 10.1999 10.826 10.1999H2.60984V3.41325H14.1307C14.8383 3.41325 15.4369 2.83014 15.4369 2.13915C15.4369 1.44816 14.8525 0.834229 14.1307 0.834229Z" fill="#0F0F0F"/>
<path d="M28.3667 0.834229C22.23 0.834229 17.2363 5.82786 17.2363 11.9659C17.2363 18.1039 22.23 23.0962 28.3667 23.0962C34.5034 23.0962 39.4996 18.1026 39.4996 11.9659C39.4996 5.82915 34.5047 0.834229 28.3667 0.834229ZM28.3667 20.4877C23.6685 20.4877 19.8462 16.6641 19.8462 11.9659C19.8462 7.26764 23.6685 3.41325 28.3667 3.41325C33.0649 3.41325 36.8898 7.24966 36.8898 11.9659C36.8898 16.6821 33.0675 20.4877 28.3667 20.4877Z" fill="#0F0F0F"/>
<path d="M54.8799 3.41325C57.3459 3.41325 59.6899 4.47671 61.3069 6.33005C61.5573 6.62289 61.9144 6.78986 62.2869 6.78986C62.6054 6.78986 62.9123 6.66913 63.1397 6.45849C63.3991 6.23886 63.5584 5.92805 63.5854 5.58512C63.6149 5.23577 63.5006 4.89284 63.2643 4.61799C61.145 2.21364 58.0895 0.834229 54.8799 0.834229C48.7419 0.834229 43.7469 5.82786 43.7469 11.9659C43.7469 18.1039 48.7406 23.0975 54.8799 23.0975C58.0985 23.0975 61.1592 21.7065 63.2617 19.2894C63.498 19.0325 63.6149 18.6973 63.5866 18.3441C63.5622 18.005 63.4068 17.6878 63.141 17.4437C62.9072 17.2446 62.6041 17.1355 62.292 17.1355C61.9234 17.1355 61.5638 17.2909 61.3094 17.5696C59.6899 19.4255 57.3459 20.4902 54.8799 20.4902C50.1791 20.4902 46.3568 16.6667 46.3568 11.9672C46.3568 7.26765 50.1791 3.41453 54.8799 3.41453V3.41325Z" fill="#0F0F0F"/>
<path d="M78.9735 0.834229C72.8355 0.834229 67.8406 5.82786 67.8406 11.9659C67.8406 18.1039 72.8342 23.0962 78.9735 23.0962C85.1128 23.0962 90.1039 18.1026 90.1039 11.9659C90.1039 5.82915 85.1115 0.834229 78.9735 0.834229ZM78.9735 20.4877C74.2727 20.4877 70.4504 16.6641 70.4504 11.9659C70.4504 7.26764 74.2727 3.41325 78.9735 3.41325C83.6743 3.41325 87.4966 7.24966 87.4966 11.9659C87.4966 16.6821 83.6717 20.4877 78.9735 20.4877Z" fill="#FFBE02"/>
<path d="M102.544 10.3604L102.474 10.3424C99.2293 9.50628 97.3927 8.93345 97.3927 6.8913C97.3927 5.24859 98.826 3.4813 101.97 3.4813C105.114 3.4813 106.584 5.24859 106.584 6.8913C106.584 7.62211 107.216 8.19623 108.029 8.19623C108.842 8.19623 109.473 7.6234 109.473 6.8913C109.473 3.91542 106.896 0.903564 101.97 0.903564C97.0446 0.903564 94.5028 3.91542 94.5028 6.8913C94.5028 10.9859 98.4202 11.998 101.572 12.811L101.681 12.8392C105.146 13.7177 107.108 14.333 107.108 16.7489C107.108 18.5829 105.501 20.557 101.97 20.557C98.4394 20.557 96.8674 18.5829 96.8674 16.7489C96.8674 16.0296 96.2188 15.4452 95.4225 15.4452C94.6261 15.4452 93.9775 16.018 93.9775 16.7489C93.9775 19.938 96.721 23.1656 101.97 23.1656C107.219 23.1656 109.999 19.938 109.999 16.7489C109.999 12.2741 105.69 11.1683 102.543 10.3604H102.544Z" fill="#0F0F0F"/>
</g>
<defs>
<clipPath id="clip0_538_327">
<rect width="110" height="22.3314" fill="white" transform="translate(0 0.834229)"/>
</clipPath>
</defs>
</svg>
